<svg id="Layer_1" data-name="Layer 1" xmlns="http://www.w3.org/2000/svg" viewBox="0 0 352 129">
  <g>
    <path d="M105.46,18.91a51.31,51.31,0,0,1,6.5,7.23c.35.47.72.94,1.08,1.41,5.91,7.81,9.36,17.24,11,26.82l.12.66c2.55,15.55-1.82,32.08-10.84,44.84a62.62,62.62,0,0,1-5.18,6.09,15,15,0,0,0-1.29,1.51,15.59,15.59,0,0,1-2.13,2.09c-.5.41-1,.84-1.46,1.27A60.47,60.47,0,0,1,63,125.68h-.68c-16.86-.08-32.07-6.93-44.06-18.68-.7-.74-1.35-1.5-2-2.29l-.64-.72C4.55,91.23.17,74.85,1.13,58.24a62,62,0,0,1,21-41.2c1.13-.94,2.31-1.83,3.5-2.71l1-.73C48.54-2.78,80.35-1.57,105.46,18.91Z" style="fill: #1d3556"/>
    <path d="M17.23,42.07c27.1,0,27.1,0,31.14,3.89,2.43,2.75,2.58,5.63,2.4,9.14a8.62,8.62,0,0,1-2.88,5.3,9.35,9.35,0,0,1-3.77,1.7v.57l.76.09a9.59,9.59,0,0,1,5.71,4.14c1.87,3,2,6.78,1.35,10.21A12.53,12.53,0,0,1,46.4,84.4c-3.84,2-7.6,2.09-11.82,2.06H33.24l-4.91,0-11.1,0Z" style="fill: #c7a127"/>
    <path d="M302.77,46a23.38,23.38,0,0,1,7.47,15.49c.41,7.57-.92,14.6-6.09,20.38a19.25,19.25,0,0,1-13.25,6.3c-5.76.13-11-.74-15.41-4.76-.54-.53-1.05-1.06-1.57-1.61l-.64-.67c-4.48-5.1-5.72-12.4-5.29-19s3-12.27,8-16.64A21.77,21.77,0,0,1,302.77,46Zm-21.91,7.11c-3.09,3.76-3.8,9-3.38,13.68.41,3.73,1.47,7.67,4.16,10.43,2.6,2,5.24,3.17,8.58,2.86a12,12,0,0,0,8-5.14c2.95-4.73,3.18-10.61,2-15.92a13.37,13.37,0,0,0-5.68-8.16A11.12,11.12,0,0,0,280.86,53.14Z" style="fill: #1d3557"/>
    <path d="M255.62,46.65l.55.48a19.29,19.29,0,0,1,3.45,4.67l.4.69c3.17,5.82,3.39,13.89,1.6,20.19a22.57,22.57,0,0,1-10.15,13.23,23.09,23.09,0,0,1-16.94,1.43,21.38,21.38,0,0,1-12.09-11.23,28.59,28.59,0,0,1-2.09-11.53v-1a24.08,24.08,0,0,1,6.49-16.76C234.81,39.22,247.54,39.57,255.62,46.65ZM233,53.28c-3.49,4.57-3.63,10.46-3,16a14.74,14.74,0,0,0,5.89,9.55,11.21,11.21,0,0,0,8.11,1,11.64,11.64,0,0,0,7.18-5.85,22.36,22.36,0,0,0,1.06-16,12.73,12.73,0,0,0-5.79-7.26C241.68,48.58,236.59,49.27,233,53.28Z" style="fill: #1d3557"/>
    <path d="M163.38,44.22c3.19,2.44,5.71,5.63,6.29,9.73v2h-9.15c-1.43-3.43-1.43-3.43-1.72-4.29a5.49,5.49,0,0,0-1.14-.57l-.95-.58a11.24,11.24,0,0,0-7.84-1,6.12,6.12,0,0,0-3.74,2.66,4.87,4.87,0,0,0,0,3.82,6,6,0,0,0,3.77,2.59l.57.18c1.44.42,2.88.79,4.34,1.16l.58.15,2.91.72C162,62,166.46,63.67,169.17,68A14.15,14.15,0,0,1,170,78.6c-1.39,4-4.1,6.22-7.82,8a23.65,23.65,0,0,1-9.28,1.49h-1.14c-5.28-.09-10.15-1.4-14-5.18-2.78-3-3.43-6-3.75-10.1h9.15l.86,2.58a7.67,7.67,0,0,0,4,4,14.65,14.65,0,0,0,9.39,0,6,6,0,0,0,2.85-2.65,7.08,7.08,0,0,0-.2-4.17c-.49-.83-.87-.89-1.79-1.18l-1.18-.54a21.31,21.31,0,0,0-4-1.29l-1.46-.36-2.24-.55c-5.06-1.22-9.73-2.53-12.89-7a15.1,15.1,0,0,1-1.24-10.18A14.19,14.19,0,0,1,142,43.18,23.13,23.13,0,0,1,163.38,44.22Z" style="fill: #1d3557"/>
    <path d="M178,42.22h9.43l.29,16.59,2-2.29,1.65-1.79c.3-.32.6-.64.89-1l.45-.48,2-2.21.39-.43,1.16-1.27.78-.85.36-.4,1.17-1.25A16.54,16.54,0,0,0,200.1,45,6.81,6.81,0,0,1,203.52,42a27.82,27.82,0,0,1,5.55,0l1.69,0c1.37,0,2.73.1,4.1.18a6,6,0,0,1-1.37,2l-.47.46-.5.48c-1.21,1.19-2.37,2.38-3.47,3.68-.77.87-1.61,1.67-2.43,2.48-.56.57-1.09,1.15-1.61,1.76-.78.91-1.6,1.75-2.45,2.59a17.62,17.62,0,0,0-4,4.86l.62.81c1.79,2.36,3.5,4.75,5.16,7.2q1.62,2.39,3.35,4.71c1,1.3,1.91,2.63,2.85,4,1.24,1.77,2.5,3.54,3.77,5.29l.47.66c.84,1.16.84,1.16,1.7,2.29a1.31,1.31,0,0,1,.38,1.11c-10,.89-10,.89-12.59-.45a12.1,12.1,0,0,1-2.72-4.39,30.87,30.87,0,0,0-2.87-4.47l-1.23-1.81-3.27-4.82-.45-.67-.42-.62-.36-.53c-.49-.68-1-1.32-1.54-2-1.77,1.16-3.4,2.44-3.93,4.57a49.14,49.14,0,0,0-.17,7.38c0,.76,0,1.51,0,2.27,0,1.84.05,3.67.08,5.51H178Z" style="fill: #1d3557"/>
    <path d="M79.58,41.93h34.89c0,7.44,0,7.44-1.41,9.57-.87.83-.87.83-1.32,1.21a15.84,15.84,0,0,0-1.7,1.95c-1.07,1.32-2.17,2.61-3.26,3.91-.83,1-1.65,2-2.46,3-1.07,1.32-2.17,2.62-3.27,3.91q-1.23,1.45-2.43,2.94c-2,2.49-4.13,4.92-6.26,7.33-.74.85-1.47,1.7-2.2,2.56l24.31.28v7.72H77.86c0-7.15,0-7.15,1.08-8.92.49-.46,1-.92,1.5-1.37.59-.65,1.15-1.33,1.71-2l.89-1c.94-1.09,1.84-2.21,2.75-3.33.73-.89,1.48-1.77,2.23-2.65,1-1.14,1.92-2.28,2.86-3.43q1.61-2,3.26-3.91c.82-1,1.63-1.94,2.42-2.92,1.23-1.52,2.51-3,3.8-4.46l.46-.53.42-.47a7.4,7.4,0,0,0,.93-1.3H79.58Z" style="fill: #c7a027"/>
    <path d="M317.54,42.22c25.35,0,25.35,0,29.74,4.06,2.79,3,3.68,6.79,3.72,10.81-.21,3.89-1.21,7.47-4,10.3-4.53,3.84-9.94,4-15.61,4l-4.41,0V86.55h-9.44ZM327,50.37V63.53l3.36,0,1,0c3,0,6.08,0,8.48-2.06a5.56,5.56,0,0,0,1.8-4.48c0-1.72-.11-3-1.23-4.38a8.32,8.32,0,0,0-6.49-2.35h-2.5Z" style="fill: #1d3557"/>
    <path d="M60.42,42.22h9.15v44H60.42Z" style="fill: #c8a127"/>
    <path d="M26.38,66.67l5.87,0,1.83,0h1.46l.75,0A9.09,9.09,0,0,1,41.47,68a6.3,6.3,0,0,1,1.93,4.52,6.38,6.38,0,0,1-2.07,4.67,9.36,9.36,0,0,1-6,1.57h-.69l-2.53,0-5.72-.06Z" style="fill: #1f3656"/>
    <path d="M26.38,49.8l5-.07,1.7,0,2.45,0,.76,0a7.19,7.19,0,0,1,4.38,1.27,4.51,4.51,0,0,1,1.22,3.38,5.18,5.18,0,0,1-1.59,3.86,8.59,8.59,0,0,1-5.16,1.11h-.76l-2.39,0H30.37q-2,0-4,0Z" style="fill: #1d3556"/>
  </g>
</svg>
