<?xml version="1.0" encoding="UTF-8"?>
<svg version="1.1" xmlns="http://www.w3.org/2000/svg" width="1563" height="1563">
<path d="M0 0 C8.41962719 7.77973553 15.87022461 16.07217752 22.70898438 25.26904297 C23.95065637 26.93384146 25.21564829 28.57843871 26.484375 30.22265625 C47.16463055 57.54015598 59.20873625 90.50878671 65 124 C65.13277344 124.76280273 65.26554687 125.52560547 65.40234375 126.31152344 C74.32650918 180.68375606 59.05931169 238.47222877 27.52148438 283.09179688 C21.98706842 290.63176882 15.8174118 297.57532562 9.41015625 304.37890625 C6.98815984 306.94979691 6.98815984 306.94979691 4.8984375 309.64453125 C2.63786859 312.4493112 0.16020298 314.61782502 -2.578125 316.94140625 C-4.2978185 318.40314573 -5.99353171 319.89330702 -7.671875 321.40234375 C-46.12895546 355.62561719 -97.37881861 373.56813133 -148.5625 373.3125 C-149.34580688 373.31034485 -150.12911377 373.3081897 -150.93615723 373.30596924 C-209.89965009 373.04705548 -263.09499314 349.0784199 -305 308 C-307.46006548 305.42617427 -309.73675603 302.74675518 -312 300 C-312.7321875 299.16726563 -313.464375 298.33453125 -314.21875 297.4765625 C-352.82750749 252.881004 -368.16446906 195.59855668 -364.79785156 137.51220703 C-360.30442129 82.56518511 -332.94588709 29.52291686 -291.24121094 -6.52001953 C-287.26549849 -9.82201409 -283.15135921 -12.92392239 -279 -16 C-277.88019089 -16.85023745 -276.7603991 -17.7004977 -275.640625 -18.55078125 C-199.03372891 -75.84510768 -87.81725783 -71.61393721 0 0 Z " fill="#1D3556" transform="translate(521,625)"/>
<path d="M0 0 C94.73599498 0 94.73599498 0 108.8671875 13.5859375 C117.35648181 23.19469919 117.89772225 33.26083439 117.26513672 45.54785156 C116.45341148 53.05518889 112.49667177 58.91292257 107.1875 64.0625 C103.17963874 67.24088127 98.93418635 68.80071859 94 70 C94 70.66 94 71.32 94 72 C94.87785156 72.103125 95.75570312 72.20625 96.66015625 72.3125 C105.10708509 74.05128301 111.74268363 79.91793774 116.6328125 86.796875 C123.17118421 97.33299399 123.57394402 110.51397653 121.3515625 122.49609375 C118.05252016 133.33781837 111.70344064 142.08437211 102 148 C88.54727192 154.91959748 75.41018766 155.28932146 60.64453125 155.1953125 C59.08703759 155.19236511 57.52954194 155.19032897 55.9720459 155.18920898 C50.25216669 155.1788023 44.53233013 155.15088003 38.8125 155.125 C26.004375 155.08375 13.19625 155.0425 0 155 C0 103.85 0 52.7 0 0 Z " fill="#C7A127" transform="translate(212,706)"/>
<path d="M0 0 C15.57066694 13.96422923 24.27418644 33.47008981 26.1418457 54.17285156 C27.57275088 80.62107185 22.91144943 105.20476993 4.8293457 125.42285156 C-7.23398174 138.37618084 -23.71097634 146.7538722 -41.4909668 147.45410156 C-61.62561364 147.91274955 -80.07072358 144.84762291 -95.3581543 130.79785156 C-97.24877917 128.96696355 -99.05012482 127.08914627 -100.8581543 125.17285156 C-101.59549805 124.40457031 -102.3328418 123.63628906 -103.0925293 122.84472656 C-118.75116109 105.00116941 -123.09509999 79.49013502 -121.60424805 56.46582031 C-119.66237297 33.45423702 -111.21129802 13.55626799 -93.5534668 -1.72558594 C-66.77840138 -22.60237608 -26.04375223 -21.95296164 0 0 Z M-76.6081543 24.86035156 C-87.4110914 38.01392776 -89.89886826 56.21491751 -88.41040039 72.67626953 C-86.97874233 85.71864527 -83.25947182 99.51038633 -73.8581543 109.17285156 C-64.76424314 116.10407819 -55.5398617 120.2604588 -43.8581543 119.17285156 C-31.69037921 117.04889082 -23.15902319 111.04579899 -15.8581543 101.17285156 C-5.56371697 84.64827424 -4.76023002 64.07522055 -8.94799805 45.51269531 C-12.10996421 33.90977228 -18.3700089 23.34771686 -28.79956055 16.98925781 C-45.23248803 8.21002258 -63.77471365 11.36311226 -76.6081543 24.86035156 Z " fill="#1D3557" transform="translate(1210.858154296875,719.8271484375)"/>
<path d="M0 0 C0.639375 0.55558594 1.27875 1.11117187 1.9375 1.68359375 C7.02657541 6.42052331 10.52874006 12.01478201 14 18 C14.46535156 18.79277344 14.93070313 19.58554687 15.41015625 20.40234375 C26.48090361 40.74949716 27.2606919 68.99271937 21 91 C14.98224702 110.45740129 3.28540045 126.90760763 -14.515625 137.27734375 C-32.53095181 146.18402438 -54.48392949 148.41309627 -73.74609375 142.2578125 C-92.94676867 134.83570287 -107.30606751 121.73253957 -116 103 C-121.48543156 89.95111843 -123.38201802 76.79462052 -123.3125 62.6875 C-123.30758545 61.50269043 -123.3026709 60.31788086 -123.29760742 59.09716797 C-123.00167705 36.95550575 -116.04846725 16.70999961 -100.60546875 0.47265625 C-72.73731305 -25.97493379 -28.23958078 -24.75733518 0 0 Z M-78.9296875 23.18359375 C-91.1525717 39.15727717 -91.63409033 59.75348743 -89.57421875 78.97265625 C-86.9046516 92.18947029 -80.33703 104.7454444 -68.96484375 112.36328125 C-60.13738782 117.18942515 -50.3270307 118.17786965 -40.625 115.875 C-28.96101821 112.37419219 -21.56345395 105.90285646 -15.5 95.40234375 C-7.11645097 78.46058841 -6.31358918 57.35554389 -11.8125 39.3828125 C-15.47039531 28.96262387 -22.06900402 19.22736713 -32.0625 14 C-48.71771872 6.73740077 -66.54009423 9.16379084 -78.9296875 23.18359375 Z " fill="#1D3557" transform="translate(1046,722)"/>
<path d="M0 0 C11.17161524 8.54113562 19.97970849 19.68417088 22 34 C22 36.31 22 38.62 22 41 C11.44 41 0.88 41 -10 41 C-15 29 -15 29 -16 26 C-17.71519747 24.97348627 -17.71519747 24.97348627 -20 24 C-21.093125 23.34 -22.18625 22.68 -23.3125 22 C-31.7836472 17.23053057 -41.21135319 16.66946407 -50.73046875 18.53515625 C-56.45898478 20.29113353 -60.50409486 22.67876788 -63.8125 27.8125 C-65.63669456 32.70902223 -65.63669456 36.29097777 -63.8125 41.1875 C-60.46200906 46.38653766 -56.4453578 48.49735293 -50.625 50.25 C-49.96725586 50.44980469 -49.30951172 50.64960937 -48.63183594 50.85546875 C-43.61320099 52.33889561 -38.54937187 53.63864386 -33.4765625 54.921875 C-32.80537384 55.09229309 -32.13418518 55.26271118 -31.44265747 55.43829346 C-28.0545708 56.29695635 -24.66425803 57.14369114 -21.26806641 57.96972656 C-4.77999882 62.08499542 10.78251925 68.01689561 20.24609375 82.96875 C26.46778358 94.4549466 26.46369739 107.8469214 22.9765625 120.21484375 C18.1077456 134.10070956 8.62285203 141.95453944 -4.375 148.25 C-14.92508374 152.51513839 -25.52342682 153.52926346 -36.8125 153.4375 C-38.7915332 153.42505249 -38.7915332 153.42505249 -40.81054688 153.41235352 C-59.27421263 153.09240469 -76.28481686 148.50924331 -89.8828125 135.3125 C-99.61555079 124.68190762 -101.88347857 114.51477863 -103 100 C-92.44 100 -81.88 100 -71 100 C-70.01 102.97 -69.02 105.94 -68 109 C-64.86369347 115.85341056 -60.6534923 119.74530246 -53.85546875 123.0390625 C-44.02058844 126.62452142 -30.83603623 126.56345287 -21.015625 122.97265625 C-16.38235208 120.73683269 -13.70742969 118.20947657 -11.0625 113.6875 C-9.51125189 108.30375655 -10.33668955 104.54269007 -11.75 99.125 C-13.45568413 96.22533697 -14.80054208 96.02110359 -18 95 C-19.37823658 94.37320947 -20.75173157 93.73594641 -22.12182617 93.09155273 C-26.66148338 91.05843225 -31.15896902 89.7432008 -35.98828125 88.59765625 C-37.68164368 88.17774671 -39.37500296 87.75782444 -41.06835938 87.33789062 C-43.6871157 86.69928291 -46.30663523 86.06391922 -48.92651367 85.42993164 C-66.59145039 81.13377383 -82.93203904 76.5813892 -94 61 C-99.96658972 50.00986817 -100.63182911 37.59740825 -98.31640625 25.3984375 C-94.3623789 12.69961108 -86.24571732 2.9132989 -74.75390625 -3.6484375 C-52.25677158 -14.68958444 -21.17980743 -13.39704509 0 0 Z " fill="#1D3557" transform="translate(723,714)"/>
<path d="M0 0 C10.89 0 21.78 0 33 0 C33.33 19.14 33.66 38.28 34 58 C36.31 55.36 38.62 52.72 41 50 C42.90842859 47.90787241 44.82167651 45.8234342 46.75 43.75 C47.79575201 42.62125964 48.84132086 41.49234958 49.88671875 40.36328125 C50.66668213 39.52144287 50.66668213 39.52144287 51.46240234 38.66259766 C53.83708085 36.09486812 56.20046193 33.51685407 58.5625 30.9375 C59.01278564 30.44596436 59.46307129 29.95442871 59.92700195 29.44799805 C61.28486894 27.96551592 62.64247978 26.48279967 64 25 C64.90361591 24.01299344 65.80726178 23.02601431 66.7109375 22.0390625 C67.34605507 21.34286301 67.34605507 21.34286301 67.9940033 20.63259888 C69.34175424 19.16664316 70.70888396 17.71856967 72.07739258 16.27197266 C74.04433282 14.14330314 75.7595653 11.97790652 77.40356445 9.59277344 C80.63618706 5.1538827 83.89655798 0.89967971 89.3522644 -0.68191528 C95.81128473 -1.61054273 102.26108229 -1.18883538 108.75 -0.8125 C110.71855757 -0.7471732 112.68732502 -0.68787823 114.65625 -0.63476562 C119.44275406 -0.49265005 124.21902365 -0.26911304 129 0 C127.72494758 2.80428566 126.42022876 4.81604371 124.20703125 6.953125 C123.66272461 7.48583008 123.11841797 8.01853516 122.55761719 8.56738281 C121.98172852 9.12264648 121.40583984 9.67791016 120.8125 10.25 C116.57796967 14.40127359 112.51134776 18.58563977 108.671875 23.109375 C105.98735673 26.14513865 103.06740015 28.94025449 100.18359375 31.78515625 C98.22025329 33.77659461 96.37920331 35.81302578 94.5625 37.9375 C91.84380752 41.1103592 88.97248325 44.06338382 86 47 C77.93826793 54.70299924 77.93826793 54.70299924 72 64 C72.71542969 64.93457031 73.43085937 65.86914062 74.16796875 66.83203125 C80.42709816 75.06381208 86.4117038 83.4322921 92.20947266 91.99487305 C95.99368409 97.56943369 99.89940929 103.03178038 103.91088867 108.44433594 C107.29857385 113.02166006 110.6020664 117.65252193 113.875 122.3125 C118.22933261 128.50954607 122.62634796 134.67372716 127.0625 140.8125 C127.61083496 141.57151611 128.15916992 142.33053223 128.72412109 143.11254883 C131.63927161 147.15373819 131.63927161 147.15373819 134.66967773 151.1081543 C136 153 136 153 136 155 C101.09890557 158.12776939 101.09890557 158.12776939 91.95800781 153.43994141 C87.31951009 149.19364689 84.93425772 143.75650181 82.46142578 138.06347656 C79.77851088 132.43948455 76.02564292 127.51162968 72.4375 122.4375 C71.00045306 120.33005765 69.56809572 118.21940927 68.140625 116.10546875 C64.32815077 110.48339919 60.51345414 104.86290692 56.6875 99.25 C56.16663818 98.48228271 55.64577637 97.71456543 55.10913086 96.92358398 C54.62323486 96.21145752 54.13733887 95.49933105 53.63671875 94.765625 C53.22123779 94.15493164 52.80575684 93.54423828 52.37768555 92.91503906 C50.669057 90.53997574 48.8417593 88.27273636 47 86 C40.80255812 90.05573058 35.11304576 94.53721307 33.25042725 102.00543213 C32.17316223 110.57671462 32.4769117 119.19561443 32.6875 127.8125 C32.70451303 130.45114024 32.71563469 133.08982541 32.72070312 135.72851562 C32.73484208 142.15769835 32.8700389 148.56799093 33 155 C22.11 155 11.22 155 0 155 C0 103.85 0 52.7 0 0 Z " fill="#1D3557" transform="translate(774,707)"/>
<path d="M0 0 C40.26 0 80.52 0 122 0 C122 26 122 26 117.0625 33.4375 C114.00390625 36.33984375 114.00390625 36.33984375 112.45751953 37.67919922 C110.19278017 39.73150071 108.38172005 42.09918476 106.5 44.5 C102.75212202 49.1045358 98.93016556 53.64019191 95.0859375 58.1640625 C92.18755177 61.5805954 89.328449 65.02504838 86.5 68.5 C82.75147354 73.1053325 78.92915754 77.64204444 75.08374023 82.16625977 C72.2045468 85.55954109 69.36795763 88.98267786 66.5625 92.4375 C59.47312586 101.14330235 52.12115173 109.63858479 44.6953125 118.05859375 C42.10883207 121.02053101 39.55910444 124.01437815 37 127 C65.05 127.33 93.1 127.66 122 128 C122 136.91 122 145.82 122 155 C79.76 155 37.52 155 -6 155 C-6 130 -6 130 -2.25 123.8125 C-0.52723294 122.1791218 1.22523942 120.57672939 3 119 C5.06670372 116.72233757 7.0275908 114.35934717 9 112 C10.02856166 110.80219364 11.05849176 109.60556089 12.08984375 108.41015625 C15.36733669 104.58623661 18.54798925 100.68683421 21.72265625 96.77734375 C24.28204054 93.65603633 26.88593791 90.5754997 29.5 87.5 C32.87283589 83.53096457 36.21176645 79.53982979 39.5 75.5 C43.24917489 70.89387085 47.07185188 66.356104 50.91845703 61.83154297 C53.77846938 58.4614901 56.59255733 55.05973692 59.375 51.625 C63.68341227 46.32354171 68.15418951 41.17156928 72.65966797 36.03759766 C73.19350098 35.42706543 73.72733398 34.8165332 74.27734375 34.1875 C74.75421631 33.64480469 75.23108887 33.10210938 75.72241211 32.54296875 C77.19804601 30.81494601 77.19804601 30.81494601 79 28 C52.93 28 26.86 28 0 28 C0 18.76 0 9.52 0 0 Z " fill="#C7A027" transform="translate(430,706)"/>
<path d="M0 0 C88.62806261 0 88.62806261 0 104 14.1875 C113.74601327 24.80466529 116.85635868 37.95187935 117 52 C116.25025059 65.57879487 112.75753213 78.12856671 103 88 C87.17300241 101.42896765 68.25446013 102.17606136 48.4375 102.0625 C43.343125 102.041875 38.24875 102.02125 33 102 C33 119.49 33 136.98 33 155 C22.11 155 11.22 155 0 155 C0 103.85 0 52.7 0 0 Z M33 28 C33 43.18 33 58.36 33 74 C38.81625 74.061875 38.81625 74.061875 44.75 74.125 C46.5438916 74.15231201 46.5438916 74.15231201 48.37402344 74.18017578 C58.89332815 74.23351213 69.63499866 74.08701502 78 67 C82.91392241 62.1106472 84.1712936 58.18702213 84.3125 51.3125 C84.2443936 45.30056234 83.91377053 40.71406535 80 36 C73.35232365 29.56862549 66.527254 27.73070479 57.31640625 27.8046875 C56.03451416 27.80968262 54.75262207 27.81467773 53.43188477 27.81982422 C51.02153931 27.84713623 51.02153931 27.84713623 48.5625 27.875 C43.426875 27.91625 38.29125 27.9575 33 28 Z " fill="#1D3557" transform="translate(1262,707)"/>
<path d="M0 0 C10.56 0 21.12 0 32 0 C32 50.82 32 101.64 32 154 C21.44 154 10.88 154 0 154 C0 103.18 0 52.36 0 0 Z " fill="#C8A127" transform="translate(363,707)"/>
<path d="M0 0 C6.765 -0.061875 13.53 -0.12375 20.5 -0.1875 C22.61986328 -0.21481201 24.73972656 -0.24212402 26.92382812 -0.27026367 C28.62629631 -0.27903521 30.32877084 -0.28667756 32.03125 -0.29296875 C33.3301416 -0.3159906 33.3301416 -0.3159906 34.65527344 -0.33947754 C41.56833103 -0.3424201 46.7783595 1.02308424 52.75 4.6875 C57.30252989 9.36648906 59.23685078 13.95756582 59.5 20.5 C59.21093846 27.45674784 57.08011695 31.87260766 52.25 36.8125 C45.32336214 41.4746601 39.38935986 42.44092181 31.25 42.29296875 C30.05310547 42.28843689 30.05310547 42.28843689 28.83203125 42.28381348 C25.88788682 42.26826934 22.94392864 42.22638684 20 42.1875 C10.1 42.0946875 10.1 42.0946875 0 42 C0 28.14 0 14.28 0 0 Z " fill="#1F3656" transform="translate(244,792)"/>
<path d="M0 0 C5.83576204 -0.09214361 11.66897124 -0.17168646 17.50488281 -0.21972656 C19.48739199 -0.23976497 21.46984263 -0.26700353 23.45214844 -0.30175781 C26.31199641 -0.35061954 29.17105881 -0.37304673 32.03125 -0.390625 C32.90865845 -0.41127014 33.78606689 -0.43191528 34.69006348 -0.45318604 C40.63233206 -0.45532262 45.0185021 0.68710295 50 4 C53.57104285 7.68623778 53.92100519 10.79532911 54.25 15.8125 C54.1586787 21.26133761 52.57863158 25.42136842 48.6875 29.3125 C42.78406517 33.01930792 37.42220884 33.27796986 30.6640625 33.1953125 C29.34503433 33.19106766 29.34503433 33.19106766 27.99935913 33.18673706 C25.20776406 33.17559712 22.4164971 33.15050411 19.625 33.125 C17.72526507 33.1149622 15.82552508 33.10583775 13.92578125 33.09765625 C9.28362795 33.07738484 4.64217859 33.03822471 0 33 C0 22.11 0 11.22 0 0 Z " fill="#1D3556" transform="translate(244,733)"/>
</svg>
